<?xml version="1.0" encoding="UTF-8"?>
<svg id="Layer_2" data-name="Layer 2" xmlns="http://www.w3.org/2000/svg" viewBox="0 0 1631.29 806.81">
  <defs>
    <style>
      .cls-1 {
        fill: #0a5680;
      }

      .cls-2 {
        fill: #0593d2;
      }
    </style>
  </defs>
  <g id="Ebene_1" data-name="Ebene 1">
    <path class="cls-1" d="M437.16,8.29v24.88c0,46.2-34.35,75.82-90.04,75.82h-201.4c-24.88,0-40.28,17.77-40.28,46.2v194.3h257.09v100.71h-216.8c-24.88,0-40.28,17.77-40.28,46.2v302.11H0V8.29h437.16Z"/>
    <path class="cls-1" d="M973.82,738.09c-39.1,47.4-86.49,68.72-145.72,68.72h-72.27c-71.09,0-133.88-37.91-170.6-100.71-22.51-37.91-30.8-74.63-30.8-136.24V236.94c0-61.6,8.29-98.32,30.8-136.24C621.94,37.91,684.73,0,755.82,0h72.27c59.23,0,106.63,21.33,145.72,68.72l-71.09,72.27c-23.7-27.26-50.94-40.28-82.93-40.28h-63.98c-55.68,0-95.96,50.94-95.96,123.21v358.97c0,72.27,40.28,123.21,95.96,123.21h63.98c31.99,0,59.23-13.03,82.93-40.28l71.09,72.27Z"/>
    <path class="cls-1" d="M1412.12,8.29h-94.78l-219.17,790.22h98.34l45.07-158.87c-8.02-17.22-12.63-36.35-12.63-56.6,0-47.6,24.83-89.32,62.18-113.18l61.77-225.8c3.55-5.92,5.92-8.29,10.66-8.29,5.92,0,9.48,2.37,11.85,8.29l62.12,227.08c36.19,24.06,60.07,65.18,60.07,111.9,0,19.35-4.17,37.69-11.53,54.31l45.73,161.16h99.52L1412.12,8.29Z"/>
    <circle class="cls-2" cx="1363.25" cy="583.04" r="67.16"/>
  </g>
</svg>